<svg width="350" height="100" data-name="Layer 2"
    xmlns="http://www.w3.org/2000/svg" viewBox="0 0 443.37 101.59">
    <path d="M64.93 94.62a.82.82 0 01.34 1.36 17.65 17.65 0 01-22.2 3c-17.88-10.34-28.38-28-42.7-41.86a1.29 1.29 0 01-.08-1.69l3.64-3.81c3.56-3.56 9.32-2.8 12.54.85 14.14 15.94 26.01 37.32 48.46 42.15z" fill="#007573"></path>
    <path d="M77.86 82.25a.82.82 0 01.34 1.36l-1.19 1.19a16 16 0 01-18.73 3.05C33.86 75.22 24.68 47.17 1.21 33.53a1.25 1.25 0 01-.25-1.78l4.49-4.58c2.37-2.37 6.86-2.37 10.17.08 22.7 16.36 31.94 46.36 62.24 55z" fill="#004750"></path>
    <path d="M102.47 56.32a.82.82 0 01.34 1.36l-2.63 2.73a12.69 12.69 0 01-14.66 2.8C59.25 51.41 50.27 22.26 26.46 8.02a1.24 1.24 0 01-.17-1.78l4.49-4.49c2.38-2.34 6.95-2.34 10.34.17 21.95 16.49 31.27 45.93 61.35 54.4z" fill="#6b1e74"></path>
    <path d="M90.35 69.28C55.53 59.41 48.49 21.83 17.14 8.41c-7.71-3.73-10.76.08-11.52.93s-4.49 4.58-4.49 4.58a1.22 1.22 0 00.42 1.86c33.81 9.83 41.26 45.92 71 59.9a13.71 13.71 0 0016-2.88l2.12-2.2a.82.82 0 00-.32-1.32z" fill="#211651"></path>
    <path d="M112.72 42.85c-21.18-6.1-30.59-26.44-43.13-41.26a1.24 1.24 0 00-1.95-.17l-1.69 1.69a13.35 13.35 0 00-3 12.54 14 14 0 001.44 3.3c5.42 9.32 25.93 32.28 40.08 30.42a10.21 10.21 0 006.86-3.39l1.69-1.86a.75.75 0 00-.3-1.27z" fill="#c227b9"></path>
    <path d="M170.28 64.25a1.35 1.35 0 00-1.85 0c-4.07 3.61-8 5.77-13.86 5.77-9.87 0-17-8.18-17-18.28v-.15c0-10.1 7.22-18.2 17-18.2 5.42 0 9.59 2.18 13.43 5.5a1.34 1.34 0 001.9-.12l4.23-4.87a1.11 1.11 0 00-.08-1.54c-4.77-4.32-10.4-7.3-19.4-7.3-15.62 0-26.6 12-26.6 26.68v.15c0 14.81 11.2 26.53 26.23 26.53 9.1 0 14.86-3.14 20-8.19a1.34 1.34 0 000-1.89zm31.28-26.48a13.48 13.48 0 00-10.45 4.64 1 1 0 01-1.71-.66V24.68a1 1 0 00-1-1h-6.94a1 1 0 00-1 1V76.5a1 1 0 001 1h6.94a1 1 0 001-1v-21c0-6 3.61-9.65 8.77-9.65s8.33 3.46 8.33 9.51v21.12a1 1 0 001 1h6.94a1 1 0 001-1V52.65c-.03-8.99-5.11-14.88-13.88-14.88zm41.51.23c-11.78-1.77-22.21 7.88-22.21 19.8v.38c0 12 8.7 20.19 20 20.19A19.64 19.64 0 00256 71.96a1.18 1.18 0 00-.1-1.67l-3.46-3.07a1.32 1.32 0 00-1.76 0 13.67 13.67 0 01-9.67 3.83 10.73 10.73 0 01-10.91-8.43 1.15 1.15 0 011.1-1.44h25.85a1.46 1.46 0 001.46-1.37v-1.14c0-10.16-5.18-19.13-15.44-20.67zm5.45 17.31h-17.86a.82.82 0 01-.81-1c1.07-5.53 4.78-9.29 9.94-9.29 5.51 0 8.83 3.92 9.72 9.12a1 1 0 01-.98 1.17zm36.87-17.54a13.47 13.47 0 00-10.4 4.56 1 1 0 01-1.76-.68v-2.06a1 1 0 00-1-1h-6.88a1 1 0 00-1 1v36.88a1 1 0 001 1h6.88a1 1 0 001-1V55.53c0-6 3.61-9.65 8.77-9.65s8.33 3.46 8.33 9.51v21.09a1 1 0 001 1h6.88a1 1 0 001-1V52.65c.03-8.99-5.06-14.88-13.82-14.88zm69.95-11.87h-7.72a1.25 1.25 0 00-1.05.57l-14.28 22.18a1.25 1.25 0 01-2.1 0l-14.28-22.18a1.25 1.25 0 00-1.05-.57h-7.72a1.25 1.25 0 00-1.28 1.25v49.08a1.25 1.25 0 001.25 1.25h6.41a1.25 1.25 0 001.25-1.25V44.76a1.25 1.25 0 012.29-.69l12.88 19.29a1.26 1.26 0 002.1.08l13.19-19.53a1.25 1.25 0 012.29.7v31.63a1.25 1.25 0 001.25 1.25h6.56a1.25 1.25 0 001.25-1.25V27.15a1.25 1.25 0 00-1.24-1.25zM383.51 38c-11.78-1.77-22.22 7.88-22.22 19.8v.38c0 12 8.69 20.19 20 20.19a19.64 19.64 0 0015-6.3 1.32 1.32 0 00-.11-1.87l-3.38-3a1.28 1.28 0 00-1.71 0 13.69 13.69 0 01-9.69 3.85 10.73 10.73 0 01-10.92-8.48 1.11 1.11 0 011.07-1.4h25.83a1.53 1.53 0 001.53-1.43v-1.07c.03-10.16-5.15-19.13-15.4-20.67zm4.92 17.31h-16.94a1.15 1.15 0 01-1.11-1.42c1.19-5.27 4.83-8.82 9.84-8.82 5.29 0 8.56 3.62 9.6 8.52a1.44 1.44 0 01-1.39 1.72zm53.76-31.62h-6.54a1.18 1.18 0 00-1.19 1.18v16.61a1.18 1.18 0 01-2 .83 15.4 15.4 0 00-11.25-4.55c-9.29 0-18.06 7.29-18.06 20.19v.15c0 12.9 8.92 20.19 18.06 20.19a14.88 14.88 0 0011.22-4.8 1.18 1.18 0 012 .81v2a1.19 1.19 0 001.19 1.19h6.54a1.19 1.19 0 001.19-1.19V24.88a1.19 1.19 0 00-1.16-1.19zm-7.58 34.41c0 7.44-5.31 12.46-11.28 12.46s-11.2-4.94-11.2-12.46v-.15c0-7.74 5.08-12.46 11.2-12.46s11.28 4.94 11.28 12.46z" fill="#221f1f"></path>
</svg>