<svg xmlns="http://www.w3.org/2000/svg" data-name="Layer 2" width="113.247" height="101.597">
  <path d="M64.917 94.604a.82.82 0 01.34 1.36 17.65 17.65 0 01-22.2 3c-17.88-10.34-28.38-28-42.7-41.86a1.29 1.29 0 01-.08-1.69l3.64-3.81c3.56-3.56 9.32-2.8 12.54.85 14.14 15.94 26.01 37.32 48.46 42.15z" fill="#fff" fill-opacity="0.05"/>
  <path d="M77.847 82.234a.82.82 0 01.34 1.36l-1.19 1.19a16 16 0 01-18.73 3.05c-24.42-12.63-33.6-40.68-57.07-54.32a1.25 1.25 0 01-.25-1.78l4.49-4.58c2.37-2.37 6.86-2.37 10.17.08 22.7 16.36 31.94 46.36 62.24 55z" fill="#fff" fill-opacity="0.05"/>
  <path d="M102.457 56.304a.82.82 0 01.34 1.36l-2.63 2.73a12.69 12.69 0 01-14.66 2.8c-26.27-11.8-35.25-40.95-59.06-55.19a1.24 1.24 0 01-.17-1.78l4.49-4.49c2.38-2.34 6.95-2.34 10.34.17 21.95 16.49 31.27 45.93 61.35 54.4z" fill="#fff" fill-opacity="0.05"/>
  <path d="M90.337 69.264c-34.82-9.87-41.86-47.45-73.21-60.87-7.71-3.73-10.76.08-11.52.93-.76.85-4.49 4.58-4.49 4.58a1.22 1.22 0 00.42 1.86c33.81 9.83 41.26 45.92 71 59.9a13.71 13.71 0 0016-2.88l2.12-2.2a.82.82 0 00-.32-1.32z" fill="#fff" fill-opacity="0.05"/>
  <path d="M112.707 42.834c-21.18-6.1-30.59-26.44-43.13-41.26a1.24 1.24 0 00-1.95-.17l-1.69 1.69a13.35 13.35 0 00-3 12.54 14 14 0 001.44 3.3c5.42 9.32 25.93 32.28 40.08 30.42a10.21 10.21 0 006.86-3.39l1.69-1.86a.75.75 0 00-.3-1.27z" fill="#fff" fill-opacity="0.05"/>
</svg>
